<svg xmlns="http://www.w3.org/2000/svg" viewBox="0 0 128 128"><defs><linearGradient id="g" x2=".85" y2="1"><stop stop-color="hsl(183,95%,83%)"/><stop offset=".46" stop-color="hsl(183,94%,58%)"/><stop offset="1" stop-color="hsl(183,95%,29%)"/></linearGradient><linearGradient id="shine" x2=".5" y2="1"><stop stop-color="white" stop-opacity=".85"/><stop offset="1" stop-color="white" stop-opacity="0"/></linearGradient><filter id="shadow" x="-30%" y="-30%" width="160%" height="160%"><feDropShadow dy="3" stdDeviation="3" flood-color="hsl(183,90%,22%)" flood-opacity=".8"/></filter></defs><g filter="url(#shadow)"><polygon points="45,13 84,13 112,43 112,82 84,111 45,111 16,82 16,43" fill="url(#g)" stroke="hsl(183,85%,86%)" stroke-width="1.8" stroke-linejoin="round"/><polygon points="45,13 84,13 75.6,31.42 52.980000000000004,31.42" fill="hsl(183,90%,80%)" fill-opacity=".86" stroke="white" stroke-opacity=".16" stroke-width=".7"/><polygon points="84,13 112,43 91.84,48.82 75.6,31.42" fill="hsl(183,90%,52%)" fill-opacity=".86" stroke="white" stroke-opacity=".16" stroke-width=".7"/><polygon points="112,43 112,82 91.84,71.44 91.84,48.82" fill="hsl(183,90%,34%)" fill-opacity=".86" stroke="white" stroke-opacity=".16" stroke-width=".7"/><polygon points="112,82 84,111 75.6,88.25999999999999 91.84,71.44" fill="hsl(183,90%,26%)" fill-opacity=".86" stroke="white" stroke-opacity=".16" stroke-width=".7"/><polygon points="84,111 45,111 52.980000000000004,88.25999999999999 75.6,88.25999999999999" fill="hsl(183,90%,40%)" fill-opacity=".86" stroke="white" stroke-opacity=".16" stroke-width=".7"/><polygon points="45,111 16,82 36.160000000000004,71.44 52.980000000000004,88.25999999999999" fill="hsl(183,90%,63%)" fill-opacity=".86" stroke="white" stroke-opacity=".16" stroke-width=".7"/><polygon points="16,82 16,43 36.160000000000004,48.82 36.160000000000004,71.44" fill="hsl(183,90%,86%)" fill-opacity=".86" stroke="white" stroke-opacity=".16" stroke-width=".7"/><polygon points="16,43 45,13 52.980000000000004,31.42 36.160000000000004,48.82" fill="hsl(183,90%,67%)" fill-opacity=".86" stroke="white" stroke-opacity=".16" stroke-width=".7"/><polygon points="52.980000000000004,31.42 75.6,31.42 91.84,48.82 91.84,71.44 75.6,88.25999999999999 52.980000000000004,88.25999999999999 36.160000000000004,71.44 36.160000000000004,48.82" fill="url(#g)" stroke="white" stroke-opacity=".42" stroke-width="1"/><path d="M 52.980000000000004 31.42 L 75.6 31.42 L 62 66 L 36.160000000000004 48.82 Z" fill="url(#shine)" opacity=".65"/><path d="M 16 43 L 45 13 L 84 13" fill="none" stroke="white" stroke-opacity=".88" stroke-width="2" stroke-linecap="round"/><polygon points="50.7,28.300000000000004 78,28.300000000000004 97.6,49.3 97.6,76.6 78,96.9 50.7,96.9 30.400000000000006,76.6 30.400000000000006,49.3" fill="none" stroke="hsl(183,95%,90%)" stroke-width="2.5"/><path d="M50.7 28.300000000000004L64 62M78 28.300000000000004L64 62M97.6 49.3L64 62M97.6 76.6L64 62M78 96.9L64 62M50.7 96.9L64 62M30.400000000000006 76.6L64 62M30.400000000000006 49.3L64 62" stroke="white" stroke-opacity=".45" stroke-width="1.5"/><polygon points="45,49 77,39 88,73 58,89 39,70" fill="hsl(183,90%,72%)" fill-opacity=".45" stroke="white" stroke-opacity=".55"/></g><path d="M 36 23 L 38 31 L 46 33 L 38 35 L 36 43 L 34 35 L 26 33 L 34 31 Z" fill="white" opacity=".94"/></svg>