<svg xmlns="http://www.w3.org/2000/svg" width="128" height="128" viewBox="0 0 128 128"><defs><linearGradient id="c-metal" x2=".8" y2="1"><stop stop-color="#d5faff"/><stop offset=".24" stop-color="#56ccec"/><stop offset=".55" stop-color="#1d6ba6"/><stop offset="1" stop-color="#083b69"/></linearGradient><radialGradient id="c-core"><stop stop-color="white"/><stop offset=".3" stop-color="#e0ffff"/><stop offset="1" stop-color="#46eaff"/></radialGradient></defs>
  <circle cx="64" cy="64" r="37" fill="#0b315b" stroke="#5fdcff" stroke-width="2"/>
  <g transform="rotate(0 64 64)"><path d="M53 48V29H43L64 6l21 23H75v19Z" fill="url(#c-metal)" stroke="#d2fbff" stroke-width="1.8" stroke-linejoin="round"/><path d="M64 39V21m-7 7 7-7 7 7" fill="none" stroke="white" stroke-width="3" stroke-linecap="round" opacity="0.6499999999999999"/></g><g transform="rotate(90 64 64)"><path d="M53 48V29H43L64 6l21 23H75v19Z" fill="url(#c-metal)" stroke="#d2fbff" stroke-width="1.8" stroke-linejoin="round"/><path d="M64 39V21m-7 7 7-7 7 7" fill="none" stroke="white" stroke-width="3" stroke-linecap="round" opacity="0.6499999999999999"/></g><g transform="rotate(180 64 64)"><path d="M53 48V29H43L64 6l21 23H75v19Z" fill="url(#c-metal)" stroke="#d2fbff" stroke-width="1.8" stroke-linejoin="round"/><path d="M64 39V21m-7 7 7-7 7 7" fill="none" stroke="white" stroke-width="3" stroke-linecap="round" opacity="0.6499999999999999"/></g><g transform="rotate(270 64 64)"><path d="M53 48V29H43L64 6l21 23H75v19Z" fill="url(#c-metal)" stroke="#d2fbff" stroke-width="1.8" stroke-linejoin="round"/><path d="M64 39V21m-7 7 7-7 7 7" fill="none" stroke="white" stroke-width="3" stroke-linecap="round" opacity="0.6499999999999999"/></g>
  <circle cx="64" cy="64" r="21" fill="#103755" stroke="#86f5ff" stroke-width="2"/>
  <path d="M58 46h12v12h12v12H70v12H58V70H46V58h12Z" fill="url(#c-core)"/>
  <circle cx="64" cy="64" r="29" fill="none" stroke="#c6ffff" stroke-width="1.6" stroke-dasharray="8 15" transform="rotate(0 64 64)"/><path d="M 91 38.7 L 92.075 41.925 L 95.3 43 L 92.075 44.075 L 91 47.3 L 89.925 44.075 L 86.7 43 L 89.925 41.925 Z" fill="#fff"/></svg>